<svg xmlns="http://www.w3.org/2000/svg" width="219.009" height="50.994" viewBox="0 0 219.009 50.994"><path fill-rule="evenodd" clip-rule="evenodd" fill="#E52429" d="M214.11 7.704c-2.132 0-3.86 1.7-3.86 3.795 0 2.094 1.73 3.792 3.86 3.792s3.856-1.698 3.856-3.793c0-2.097-1.726-3.796-3.857-3.796zm0-1.025c2.704 0 4.9 2.157 4.9 4.82 0 2.66-2.196 4.82-4.9 4.82-2.708 0-4.9-2.16-4.9-4.82-.002-2.663 2.192-4.82 4.9-4.82zm-.978 2.573h.79c.046 0 .08 0 .108.007h.102c.238.01.398.027.482.05.498.08.752.38.758.9 0 .5-.236.818-.71.95-.108.032-.284.054-.522.064-.05.004-.125.01-.225.01h-.783v-1.98zm0 2.65v2.474h-.807V8.572h1.623c.643 0 1.182.095 1.615.287.438.19.66.65.666 1.384.01.835-.452 1.346-1.384 1.54l1.623 2.594h-.917l-1.572-2.482-.848.008zM80.45 14.684V30.39h2.408V19.51h8.745l-2.944 3.686 1.873 1.49 4.283-5.176h7.674v10.882h2.41v-15.71h-2.41v2.37H82.857v-2.37H80.45zm122.96 0h2.5V30.39h-2.5V14.684zM201 30.39v-3.86l-9.813-11.848h-2.5V24.95l2.5 2.984v-9.48L201 30.392zM178.16 14.684l13.03 15.708h-3.214l-9.816-11.935-5.8 7.11h5.8v2.37h-7.762l-2.053 2.456h-3.123l12.938-15.707zm-70.76 0V30.39h39.35v-2.456h-36.853v-4.827h7.318v-2.37h-7.318v-1.23h17.222V17.05h-17.222v-2.37h-2.498v.003zm25.787 2.368v2.46h24.63v10.88h2.497V19.51h12.225v-2.46h-39.352zm-3.66-2.367h2.5v10.883h-2.5V14.683zM53.03 28.925l-24.752-.065v-7.102h-1.795v7.102l-16.864.315-9.62.568 2.056 2.393 7.566-.885c5.707-.567 11.478-.818 17.185-.757 7.246-.125 14.428-.25 21.674-.25l4.55-1.318zM66.4 9.17C59.537 6.52 53.22 3.594 46.81 0c-6.35 3.595-12.25 6.52-19.046 9.17l2.95-.19c6.54-2.585 9.925-4.135 16.08-7.543 6.156 3.408 10.018 5.01 16.558 7.6l3.047.132zm-39.918.414l.036.885c11.478.628 22.792 1.703 33.95 4.414l6.667-5.3H26.482zm-8.784 9.84H76.46l-9.324 7.504c-16.094-4.288-32.767-6.495-49.438-6.495v-1.01zm43.834-4.42l.862-.756 13.588 4.43-4.135-.247-10.315-3.427zm-39.407 21.95h1.67l1.043 7.108c.053.326.09.624.112.894.02.267.042.506.063.716h.032l.337-.732c.128-.28.273-.572.433-.877l3.708-7.107h1.718l-.513 10.52H28.96l.37-6.13c.02-.367.046-.686.072-.955.027-.267.05-.47.072-.607h-.032c-.053.138-.136.328-.25.57-.11.24-.253.53-.424.868l-3.26 6.255h-1.685l-.915-6.19c-.054-.337-.09-.64-.112-.91-.02-.27-.043-.465-.064-.592H22.7c-.02.138-.07.34-.145.608-.075.27-.166.59-.272.957l-1.862 6.128h-1.637l3.342-10.52zm13.228 10.708c-.47 0-.88-.07-1.228-.222-.348-.146-.64-.35-.875-.615-.235-.264-.41-.573-.52-.93-.113-.36-.17-.745-.17-1.155 0-.715.113-1.386.337-2.012.225-.627.535-1.17.93-1.63.397-.456.857-.814 1.382-1.08.523-.264 1.085-.394 1.685-.394.674 0 1.214.16 1.622.48.406.322.61.788.61 1.398 0 .474-.134.884-.4 1.225s-.627.634-1.077.875c-.45.243-.968.44-1.557.594-.59.152-1.204.265-1.846.34 0 .557.104.988.313 1.294s.554.458 1.036.458c.428 0 .81-.09 1.147-.27.337-.18.624-.373.86-.582l.754 1.09c-.14.123-.306.254-.498.385-.193.134-.413.255-.66.363-.246.11-.52.204-.827.278-.306.075-.645.112-1.02.112zm1.268-6.696c-.267 0-.518.063-.753.19-.235.125-.45.302-.642.52-.192.223-.364.48-.514.774-.15.294-.262.61-.336.947.45-.054.862-.125 1.236-.22s.7-.214.98-.355c.278-.144.494-.308.65-.498.154-.19.232-.4.232-.632 0-.484-.284-.726-.85-.726zm4.962 6.71c-.546 0-.96-.166-1.244-.504-.284-.336-.426-.804-.426-1.405 0-.137.005-.276.017-.42.01-.142.03-.29.062-.448l.947-5.07h1.67l-.9 4.958c-.042.21-.063.41-.063.6 0 .548.224.822.674.822.248 0 .512-.095.796-.285.283-.19.562-.496.835-.922.274-.427.536-.983.788-1.666.25-.686.468-1.526.65-2.527l.193-.98h1.654l-.722 3.98c-.192 1.063-.324 1.9-.394 2.51-.07.61-.11.995-.12 1.154H44.36c.042-.336.094-.714.152-1.13.06-.415.126-.777.2-1.08h-.03c-.15.25-.32.52-.507.805-.188.282-.407.542-.66.78-.25.238-.537.434-.858.59-.32.158-.68.237-1.075.237zm2.633-8.62c-.31 0-.602-.044-.875-.126-.273-.084-.51-.212-.706-.38-.2-.168-.354-.382-.466-.64-.112-.258-.168-.56-.168-.908l.016-.268h1.365l-.015.19c0 .293.074.53.224.71.15.18.38.268.69.268.3 0 .56-.102.778-.31.22-.205.372-.49.458-.86h1.43c-.097.422-.242.78-.435 1.075-.19.294-.41.534-.657.717-.246.185-.51.32-.795.404-.284.084-.565.127-.843.127zm7.594-.616h-2.97l.256-1.486h7.642l-.258 1.486h-2.89l-1.638 9.033H50.17l1.64-9.033zm5.007 9.222c.332 0 .634-.063.907-.188.273-.126.52-.293.738-.497.22-.206.417-.445.594-.72.177-.273.345-.563.506-.868h.032c-.086.337-.152.68-.2 1.033-.05.354-.09.704-.12 1.05h1.637c0-.158.033-.542.097-1.152.064-.61.193-1.446.386-2.51l.706-3.79c-.172-.073-.47-.157-.892-.252-.423-.096-.95-.143-1.582-.143-.728 0-1.386.146-1.975.44-.588.297-1.088.698-1.5 1.21-.412.51-.73 1.104-.956 1.784-.225.678-.336 1.4-.336 2.17 0 .747.17 1.34.513 1.777.345.437.826.655 1.447.655zm.594-1.438c.28 0 .558-.12.836-.354.278-.236.54-.566.787-.98.246-.415.465-.904.658-1.47.194-.562.35-1.166.467-1.806l.08-.57c-.085-.02-.21-.045-.377-.07-.166-.025-.34-.04-.522-.04-.407 0-.78.105-1.116.317-.337.21-.626.5-.867.87-.24.366-.43.797-.57 1.285-.14.49-.21 1.01-.21 1.555 0 .843.28 1.264.836 1.264zm7.017-6.394h1.686l-.546 3h3.195l.562-3h1.686l-1.396 7.644h-1.702l.61-3.3h-3.195l-.61 3.3H63.03l1.397-7.644zm8.557 7.8c-.343 0-.63-.114-.86-.34-.228-.227-.344-.503-.344-.828 0-.315.116-.588.345-.813.23-.227.517-.342.86-.342.33 0 .61.115.84.34s.347.5.347.814c0 .325-.116.602-.346.83-.23.224-.51.338-.842.338zm8.525-10.675h1.78l-.77 4.28h5.25l.772-4.28h1.782l-1.91 10.52H86.63l.867-4.77h-5.234l-.867 4.77h-1.782l1.895-10.52zm11.413 10.707c-.62 0-1.102-.218-1.444-.654-.343-.438-.515-1.03-.515-1.778 0-.768.112-1.49.337-2.17.225-.68.543-1.273.955-1.785.413-.51.913-.912 1.5-1.208.59-.295 1.248-.44 1.976-.44.63 0 1.16.046 1.58.142.424.094.72.178.892.25l-.706 3.79c-.194 1.064-.323 1.9-.387 2.512-.064.61-.096.994-.096 1.153H95.38c.032-.347.072-.697.12-1.05s.115-.697.2-1.035h-.03c-.162.306-.33.595-.506.867-.177.275-.375.515-.595.72-.22.205-.466.372-.74.498-.272.123-.575.187-.907.187zm.595-1.438c.278 0 .557-.12.835-.354.278-.236.54-.566.787-.98.246-.415.465-.904.658-1.47.193-.562.348-1.166.466-1.806l.08-.57c-.086-.02-.21-.045-.377-.07-.167-.025-.34-.04-.522-.04-.407 0-.78.105-1.116.317-.338.21-.627.5-.868.87-.24.366-.43.797-.57 1.285-.14.49-.208 1.01-.208 1.555 0 .843.277 1.264.834 1.264zm8.605 1.453c-.728 0-1.36-.055-1.895-.164-.535-.112-.936-.24-1.203-.387l.818-4.52c.17-.968.56-1.703 1.164-2.208.604-.508 1.442-.76 2.512-.76.352 0 .684.042.994.118.31.08.586.198.827.358.242.156.432.352.57.582.14.232.21.5.21.806 0 .535-.164.966-.49 1.287-.327.32-.73.545-1.212.67v.032c.396.073.73.244 1.003.513.274.268.41.623.41 1.066 0 .412-.098.776-.296 1.098-.198.32-.466.595-.803.822-.336.227-.73.397-1.18.514s-.924.173-1.427.173zm.144-1.23c.62 0 1.092-.134 1.413-.403.32-.27.48-.603.48-1.003 0-.264-.082-.487-.248-.677-.166-.19-.414-.286-.746-.286-.054 0-.107.005-.16.008-.054.006-.108.014-.16.024l-1.67.3-.322 1.752c.31.19.78.284 1.413.284zm.802-3.46c.47-.084.82-.235 1.05-.457.23-.222.346-.48.346-.775 0-.27-.107-.49-.32-.655-.215-.16-.5-.243-.853-.243-.278 0-.52.045-.722.136-.203.088-.374.21-.513.37-.14.158-.25.35-.337.568-.085.222-.155.458-.208.71l-.145.664 1.702-.316zm6.742 4.675c-.91 0-1.613-.267-2.11-.805-.5-.537-.748-1.274-.748-2.212 0-.735.123-1.41.37-2.027.246-.617.575-1.146.987-1.59.413-.44.89-.784 1.43-1.032.54-.247 1.1-.37 1.677-.37.525 0 .937.056 1.237.164.3.112.54.23.722.356l-.738 1.247c-.128-.085-.292-.167-.49-.246-.197-.077-.473-.118-.826-.118-.342 0-.67.08-.987.237-.315.157-.6.386-.85.686-.252.3-.454.66-.603 1.082-.15.422-.225.896-.225 1.423 0 .63.12 1.09.36 1.38.242.29.576.436 1.004.436.205 0 .395-.026.57-.08.178-.052.34-.118.483-.197.144-.078.27-.16.377-.244.107-.084.198-.165.274-.237l.77 1.09c-.118.105-.262.22-.434.34-.17.12-.372.234-.6.34-.232.105-.483.194-.756.27-.273.07-.57.106-.892.106zm5.266-7.832h1.605c-.01.116-.03.26-.057.435-.026.174-.06.355-.096.545-.037.188-.078.378-.12.567-.043.188-.086.36-.13.507h.033c.128-.232.28-.482.457-.75.177-.27.383-.514.618-.734.235-.222.506-.407.81-.554.307-.146.646-.22 1.02-.22.3 0 .553.046.756.142.203.095.366.225.49.393.122.17.21.362.265.578.053.216.08.44.08.673v.19c0 .065-.007.126-.018.19h.033c.17-.275.353-.54.545-.797.192-.26.407-.49.643-.697.235-.204.497-.368.786-.488.288-.12.61-.182.963-.182.545 0 .958.165 1.235.497.278.332.418.798.418 1.398 0 .284-.032.602-.097.948l-.916 5.006h-1.653l.884-4.817.057-.362c.017-.117.025-.23.025-.348 0-.242-.046-.446-.137-.61-.092-.16-.26-.242-.506-.242-.28 0-.56.103-.843.308-.285.204-.56.533-.828.986-.268.45-.52 1.036-.763 1.75-.24.72-.453 1.58-.635 2.592l-.13.743h-1.668l.898-4.817c.02-.115.038-.23.048-.34.012-.11.017-.217.017-.324 0-.252-.05-.464-.145-.64-.097-.172-.278-.26-.546-.26-.258 0-.525.102-.804.3-.278.2-.55.528-.81.98-.264.452-.515 1.036-.756 1.752-.24.718-.452 1.586-.634 2.606l-.145.743h-1.652l1.4-7.645zm12.747 0h1.62c-.073.41-.146.763-.215 1.06-.07.293-.147.614-.233.96h.032c.16-.284.333-.56.52-.826.188-.27.394-.507.618-.713s.477-.37.755-.495c.278-.128.594-.19.947-.19.32 0 .602.063.843.19.24.126.44.303.602.53.16.226.284.493.37.803.085.313.128.65.128 1.02 0 .777-.11 1.502-.33 2.17-.218.67-.53 1.247-.938 1.737-.407.49-.894.876-1.46 1.16s-1.194.427-1.88.427c-.31 0-.56-.013-.746-.04s-.32-.048-.394-.07l-.627 3.364h-1.67l2.055-11.086zm1.43 6.57c.417 0 .8-.104 1.146-.31.35-.205.648-.487.9-.844.252-.36.444-.778.578-1.263.134-.485.2-1.01.2-1.58 0-.4-.062-.722-.185-.963-.123-.243-.328-.364-.617-.364-.3 0-.595.123-.884.37s-.56.583-.81 1.004c-.253.422-.478.91-.676 1.468-.197.56-.36 1.148-.49 1.77l-.11.6c.074.022.182.045.32.07.142.028.35.04.628.04zm8.202 1.262c-.47 0-.88-.07-1.228-.222-.35-.146-.64-.35-.876-.615-.235-.264-.41-.573-.52-.93-.113-.36-.17-.745-.17-1.155 0-.715.112-1.386.338-2.012.225-.627.535-1.17.93-1.63.397-.456.857-.814 1.382-1.08s1.086-.394 1.686-.394c.674 0 1.214.16 1.62.48.408.322.61.788.61 1.398 0 .474-.133.884-.4 1.225s-.626.634-1.076.875c-.45.243-.968.44-1.557.594-.59.152-1.204.265-1.847.34 0 .557.104.988.313 1.294.208.306.554.458 1.035.458.43 0 .812-.09 1.148-.27.337-.18.623-.373.858-.582l.755 1.09c-.14.123-.307.254-.498.385-.193.134-.412.255-.66.363-.245.11-.52.204-.826.278-.304.075-.644.112-1.02.112zm1.27-6.696c-.268 0-.52.063-.755.19-.235.125-.45.302-.643.52-.193.223-.364.48-.515.774-.15.294-.262.61-.337.947.45-.054.86-.125 1.236-.22.374-.097.7-.214.98-.355.276-.144.493-.308.648-.498.155-.19.232-.4.232-.632.002-.484-.28-.726-.848-.726zm7.528 6.507c.043-.285.09-.61.146-.972.054-.363.112-.737.176-1.12.064-.384.135-.763.21-1.137l.208-1.034h-.03c-.15.25-.325.498-.524.74-.197.242-.42.452-.666.633-.246.178-.52.323-.826.435-.306.108-.635.164-.988.164-.545 0-.96-.168-1.243-.505-.284-.338-.426-.806-.426-1.404 0-.14.007-.277.018-.42.01-.14.03-.29.064-.45l.465-2.573h1.67l-.418 2.48c-.044.2-.064.4-.064.6 0 .548.225.82.673.82.3 0 .594-.085.883-.26.29-.174.554-.41.795-.71.24-.3.45-.658.625-1.073.178-.418.31-.867.395-1.352l.08-.505h1.652l-.723 3.98c-.19 1.062-.322 1.9-.393 2.51s-.115.994-.137 1.153h-1.622zm3.227 3.52c.525 0 .988-.085 1.39-.26.4-.174.78-.447 1.14-.82.357-.376.705-.846 1.043-1.413.338-.57.703-1.25 1.1-2.037l3.39-6.633h-1.75l-2.282 4.91c-.086.212-.162.42-.232.624-.07.205-.124.367-.167.482h-.033c-.02-.115-.04-.277-.055-.482-.018-.204-.04-.412-.072-.624l-.836-4.91h-1.75l1.557 7.77c-.213.38-.414.695-.602.946-.188.254-.37.457-.553.61-.183.15-.372.26-.564.322-.193.062-.4.095-.625.095-.247 0-.442-.02-.587-.063-.145-.043-.254-.077-.328-.11l-.61 1.31c.085.055.233.115.442.184.208.065.536.1.985.1zm13.646-11.163h1.59l.674 4.83c.03.275.057.522.072.736s.03.396.04.544h.032l.24-.544c.098-.215.22-.46.37-.735l2.6-4.83h1.622l-.354 7.644h-1.67l.258-3.947c.02-.296.045-.553.072-.774.025-.222.05-.395.072-.522h-.033c-.043.13-.105.296-.19.51-.087.207-.2.444-.34.706l-2.167 4.03h-1.588l-.547-3.996c-.052-.274-.087-.52-.103-.74-.016-.223-.03-.392-.04-.51h-.017c-.02.118-.06.29-.113.516-.053.227-.12.486-.207.782l-1.285 3.947h-1.54l2.553-7.645zm11.4 7.832c-.472 0-.882-.07-1.23-.222-.348-.146-.64-.35-.875-.615-.234-.264-.408-.573-.52-.93-.112-.36-.17-.745-.17-1.155 0-.715.112-1.386.337-2.012.227-.627.535-1.17.932-1.63.396-.456.857-.814 1.38-1.08s1.087-.394 1.687-.394c.673 0 1.214.16 1.62.48.406.322.61.788.61 1.398 0 .474-.134.884-.4 1.225s-.626.634-1.077.875c-.45.243-.967.44-1.557.594-.59.152-1.203.265-1.846.34 0 .557.104.988.313 1.294s.555.458 1.035.458c.428 0 .81-.09 1.148-.27.336-.18.623-.373.86-.582l.753 1.09c-.14.123-.306.254-.5.385-.19.134-.41.255-.657.363-.246.11-.52.204-.826.278-.305.075-.645.112-1.02.112zm1.266-6.696c-.268 0-.518.063-.754.19-.234.125-.45.302-.643.52-.19.223-.363.48-.514.774-.15.294-.262.61-.336.947.45-.054.86-.125 1.234-.22.376-.097.702-.214.98-.355.28-.144.495-.308.65-.498.155-.19.233-.4.233-.632.003-.484-.28-.726-.85-.726zm7.53 6.507l.145-.972c.054-.363.112-.737.177-1.12.064-.384.133-.763.21-1.137.073-.374.144-.718.206-1.034h-.03c-.15.25-.325.498-.522.74-.196.242-.42.452-.665.633-.246.178-.52.323-.828.435-.305.108-.633.164-.986.164-.544 0-.96-.168-1.243-.505-.283-.338-.426-.806-.426-1.404 0-.14.007-.277.017-.42.012-.14.033-.29.064-.45l.468-2.573h1.668l-.416 2.48c-.043.2-.064.4-.064.6 0 .548.225.82.674.82.3 0 .594-.085.883-.26.29-.174.555-.41.795-.71s.45-.658.627-1.073c.176-.418.307-.867.393-1.352l.08-.505h1.654l-.723 3.98c-.194 1.062-.325 1.9-.394 2.51-.07.61-.115.994-.137 1.153h-1.626zm5.058-7.643h1.605c-.012.116-.03.26-.057.435-.027.174-.06.355-.098.545-.037.188-.076.378-.12.567-.042.188-.085.36-.128.507h.033c.127-.232.28-.482.457-.75.176-.27.383-.514.617-.734.237-.222.507-.407.814-.554.305-.146.643-.22 1.018-.22.3 0 .553.046.756.142.203.095.365.225.488.393.123.17.21.362.266.578.053.216.08.44.08.673v.19c0 .065-.004.126-.016.19h.03c.173-.275.355-.54.548-.797.19-.26.406-.49.643-.697.234-.204.496-.368.785-.488.29-.12.61-.182.965-.182.545 0 .957.165 1.236.497.277.332.416.798.416 1.398 0 .284-.032.602-.097.948l-.916 5.006h-1.652l.883-4.817.057-.362c.016-.117.023-.23.023-.348 0-.242-.045-.446-.137-.61-.09-.16-.26-.242-.505-.242-.28 0-.56.103-.842.308-.283.204-.56.533-.828.986-.268.45-.52 1.036-.762 1.75-.24.72-.453 1.58-.635 2.592l-.13.743h-1.667l.9-4.817c.02-.115.036-.23.048-.34.01-.11.016-.217.016-.324 0-.252-.05-.464-.145-.64-.1-.172-.28-.26-.548-.26-.256 0-.523.102-.803.3-.278.2-.55.528-.812.98-.262.452-.514 1.036-.754 1.752-.24.718-.453 1.586-.635 2.606l-.146.743h-1.652l1.4-7.645zm14.207 7.832c-.472 0-.882-.07-1.23-.222-.348-.146-.64-.35-.875-.615-.234-.264-.408-.573-.52-.93-.112-.36-.17-.745-.17-1.155 0-.715.112-1.386.34-2.012.224-.627.532-1.17.93-1.63.395-.456.856-.814 1.38-1.08.525-.264 1.086-.394 1.686-.394.675 0 1.216.16 1.622.48.406.322.61.788.61 1.398 0 .474-.134.884-.4 1.225s-.626.634-1.077.875c-.45.243-.967.44-1.557.594-.588.152-1.203.265-1.846.34 0 .557.104.988.313 1.294s.555.458 1.035.458c.43 0 .813-.09 1.148-.27.338-.18.623-.373.86-.582l.753 1.09c-.138.123-.304.254-.497.385-.19.134-.41.255-.658.363-.246.11-.52.204-.826.278-.306.075-.646.112-1.02.112zm1.267-6.696c-.268 0-.518.063-.754.19-.234.125-.45.302-.643.52-.19.223-.363.48-.514.774-.148.294-.262.61-.336.947.45-.054.86-.125 1.236-.22.373-.097.7-.214.98-.355.278-.144.493-.308.65-.498.153-.19.23-.4.23-.632.002-.484-.28-.726-.85-.726zm4.223 6.664c-.342 0-.63-.114-.86-.34-.228-.227-.343-.503-.343-.828 0-.315.115-.588.344-.813.23-.227.52-.342.86-.342.332 0 .613.115.844.34s.344.5.344.814c0 .325-.113.602-.344.83-.23.224-.512.338-.844.338z"/></svg>